# AST/ASF file generated using VICON BodyLanguage
# -----------------------------------------------
:version 1.10
:name VICON
:units
  mass 1.0
  length 0.45
  angle deg
:documentation
   .ast/.asf automatically generated from VICON data using
   VICON BodyBuilder and BodyLanguage model FoxedUp or BRILLIANT.MOD
:root
   order TX TY TZ RX RY RZ
   axis XYZ
   position 0 0 0  
   orientation 0 0 0 
:bonedata
  begin
     id 1 
     name lhipjoint
     direction 0.603808 -0.713975 0.35448 
     length 2.2025 
     axis 0 0 0  XYZ
  end
  begin
     id 2 
     name lfemur
     direction 0.34202 -0.939693 0  
     length 6.55877  
     axis 0 0 20  XYZ
    dof rx ry rz
    limits (-160.0 20.0)
           (-70.0 70.0)
           (-60.0 70.0)
  end
  begin
     id 3 
     name ltibia
     direction 0.34202 -0.939693 0   
     length 6.80302   
     axis 0 0 20   XYZ
    dof rx
    limits (-10.0 170.0)
  end
  begin
     id 4 
     name lfoot
     direction 0.091848 -0.25235 0.963267   
     length 2.03446   
     axis -90 7.62852e-016 20   XYZ
    dof rx rz
    limits (-45.0 90.0)
           (-70.0 20.0)
  end
  begin
     id 5 
     name ltoes
     direction 1.53608e-011 -4.21925e-011 1   
     length 1.02033   
     axis -90 7.62852e-016 20   XYZ
    dof rx
    limits (-90.0 20.0)
  end
  begin
     id 6 
     name rhipjoint
     direction -0.587285 -0.724947 0.359928   
     length 2.16916  
     axis 0 0 0  XYZ 
  end
  begin
     id 7 
     name rfemur
     direction -0.34202 -0.939693 0   
     length 6.43173   
     axis 0 0 -20   XYZ
    dof rx ry rz
    limits (-160.0 20.0)
           (-70.0 70.0)
           (-70.0 60.0)
  end
  begin
     id 8 
     name rtibia
     direction -0.34202 -0.939693 0   
     length 6.70662   
     axis 0 0 -20   XYZ
    dof rx
    limits (-10.0 170.0)
 end
 begin
     id 9 
     name rfoot
     direction -0.11854 -0.325686 0.938018   
     length 2.0773  
     axis -90 -7.62852e-016 -20   XYZ
    dof rx rz
    limits (-45.0 90.0)
           (-20.0 70.0)
  end
  begin
     id 10 
     name rtoes
     direction -1.53547e-011 -4.21838e-011 1   
     length 1.03267   
     axis -90 -7.62852e-016 -20   XYZ
    dof rx
    limits (-90.0 20.0)
  end
  begin
     id 11 
     name lowerback
     direction -0.0286554 0.999539 0.0100613   
     length 2.08751   
     axis 0 0 0   XYZ
    dof rx ry rz
    limits (-20.0 45.0)
           (-30.0 30.0)
           (-30.0 30.0)
  end
  begin
     id 12 
     name upperback
     direction 0.0227093 0.999705 -0.00860929   
     length 2.08517   
     axis 0 0 0   XYZ
    dof rx ry rz
    limits (-20.0 45.0)
           (-30.0 30.0)
           (-30.0 30.0)
  end
  begin
     id 13 
     name thorax
     direction 0.0351627 0.999285 -0.013892   
     length 2.08412   
     axis 0 0 0   XYZ
    dof rx ry rz
    limits (-20.0 45.0)
           (-30.0 30.0)
           (-30.0 30.0)
  end
  begin
     id 14 
     name lowerneck
     direction -0.0696283 0.997344 0.0213922   
     length 1.44164   
     axis 0 0 0   XYZ
    dof rx ry rz
    limits (-20.0 45.0)
           (-30.0 30.0)
           (-30.0 30.0)
  end
  begin
     id 15 
     name upperneck
     direction 0.0531 0.990412 -0.127531   
     length 1.45022   
     axis 0 0 0   XYZ
    dof rx ry rz
    limits (-20.0 45.0)
           (-30.0 30.0)
           (-30.0 30.0)
  end
  begin
     id 16
     name head
     direction 0.0188154 0.998548 -0.0504727  
     length 1.45845  
     axis 0 0 0   XYZ
    dof rx ry rz
    limits (-20.0 45.0)
           (-30.0 30.0)
           (-30.0 30.0)
  end
  begin
     id 17 
     name lclavicle
     direction 0.961559 0.260051 0.088188  
     length 2.86057  
     axis 0 0 0   XYZ
    dof ry rz
    limits (-20.0 10.0)
           (0.0 20.0)
  end
  begin
     id 18 
     name lhumerus
     direction 1 -4.48959e-011 2.88185e-027   
     length 4.36901   
     axis 180 -30 -90   XYZ
    dof rx ry rz
    limits (-60.0 90.0)
           (-90.0 90.0)
           (-90.0 90.0)
  end
  begin
     id 19
     name lradius
     direction 1 -4.48965e-011 -3.92618e-028   
     length 3.21737   
     axis 180 -30 -90   XYZ
    dof rx
    limits (-10.0 170.0)
  end
  begin
     id 20
     name lwrist
     direction 1 -4.49037e-011 2.57246e-027   
     length 1.60869   
     axis -1.61769e-015 90 90   XYZ
    dof ry
    limits (-180.0 0.0)
 end
  begin
     id 21 
     name lhand
     direction 1 -4.48807e-011 5.12958e-027   
     length 0.564313   
     axis -3.27988e-015 90 90   XYZ
    dof rx rz
    limits (-90.0 90.0)
           (-45.0 45.0)
  end
  begin
     id 22 
     name lfingers
     direction 1 -4.48879e-011 1.02687e-026   
     length 0.454963   
     axis -6.5598e-015 90 90   XYZ
    dof rx
    limits (0.0 90.0)
  end
  begin
     id 23
     name lthumb
     direction 0.707107 -6.3475e-011 0.707107   
     length 0.653239   
     axis -90 45 2.19363e-014   XYZ
    dof rx rz
    limits (-45.0 45.0)
           (-45.0 45.0)
  end
  begin
     id 24 
     name rclavicle
     direction -0.954677 0.253915 0.155304   
     length 3.11497  
     axis 0 0 0   XYZ 
    dof ry rz
    limits (-10.0 20.0)
           (-20.0 0.0)
  end
  begin
     id 25 
     name rhumerus
     direction -1 -4.48958e-011 -8.20169e-028  
     length 4.34118   
     axis 180 30 90   XYZ
    dof rx ry rz
    limits (-90.0 60.0)
           (-90.0 90.0)
           (-90.0 90.0)
  end
  begin
     id 26 
     name rradius
     direction -1 -4.48978e-011 1.5676e-027   
     length 3.09531   
     axis 180 30 90   XYZ
    dof rx
    limits (-10.0 170.0)
  end
  begin
     id 27 
     name rwrist
     direction -1 -4.49001e-011 2.57123e-027   
     length 1.54765   
     axis -1.61769e-015 -90 -90   XYZ
    dof ry
    limits (-180.0 0.0)
  end
  begin
     id 28
     name rhand
     direction -1 -4.48847e-011 5.13225e-027   
     length 0.597446   
     axis -3.27988e-015 -90 -90   XYZ
    dof rx rz
    limits (-90.0 90.0)
           (-45.0 45.0)
  end
  begin
     id 29
     name rfingers
     direction -1 -4.49094e-011 1.02974e-026   
     length 0.481677   
     axis -6.5598e-015 -90 -90   XYZ
    dof rx
    limits (0.0 90.0)
  end
  begin
     id 30
     name rthumb
     direction -0.707107 -6.34859e-011 0.707107   
     length 0.691594   
     axis -90 -45 -2.19363e-014   XYZ
    dof rx rz
    limits (-45.0 45.0)
           (-45.0 45.0)
  end
:hierarchy
  begin
    root lhipjoint rhipjoint lowerback
    lhipjoint lfemur
    lfemur ltibia
    ltibia lfoot
    lfoot ltoes
    rhipjoint rfemur
    rfemur rtibia
    rtibia rfoot
    rfoot rtoes
    lowerback upperback
    upperback thorax
    thorax lowerneck lclavicle rclavicle
    lowerneck upperneck
    upperneck head
    lclavicle lhumerus
    lhumerus lradius
    lradius lwrist
    lwrist lhand lthumb
    lhand lfingers
    rclavicle rhumerus
    rhumerus rradius
    rradius rwrist
    rwrist rhand rthumb
    rhand rfingers
  end

#!OML:ASF I:\Acrobat_Osman\acrobat\cartwheel_test 2\Patient 1\Session 1\acrobat.ASF
:FULLY-SPECIFIED
:DEGREES
3225
root 10.1588 9.41584 -13.3105 574.319 -180.522 -193.449
lowerback 51.2338 3.20553 -7.0891
upperback 11.4059 0.178643 1.02792
thorax -7.84025 -0.158236 4.31789
lowerneck -10.947 -1.65766 -4.81824
upperneck 7.41692 -1.60281 1.15667
head 4.04796 -0.864941 1.02601
rclavicle 6.36111e-015 9.20621e-015
rhumerus -2.85904 3.83215 -60.2254
rradius 76.4809
rwrist -5.05487
rhand -45.5302 -314.333
rfingers 7.12502
rthumb -18.2938 -343.493
lclavicle 6.36111e-015 9.20621e-015
lhumerus -360.589 366.395 65.9339
lradius 85.928
lwrist -337.54
lhand -37.0012 -1023.15
lfingers 7.12502
lthumb -10.0758 1526.59
rfemur 430.735 -183.095 -143.974
rtibia 122.134
rfoot -210.699 181.487
rtoes -15.788
lfemur 255.773 378.356 -13.6887
ltibia 134.431
lfoot -386.528 7.6275
ltoes -41.8258
3226
root 10.3426 9.40164 -13.4917 573.426 -178.984 -194.196
lowerback 50.824 2.83502 -5.93941
upperback 11.3017 0.240829 0.619633
thorax -7.94784 -0.107486 3.33169
lowerneck -12.6693 -1.87753 -4.14879
upperneck 8.17383 -1.80377 0.100133
head 4.5527 -1.01304 0.563401
rclavicle 3.18055e-015 1.50082e-014
rhumerus -7.46549 4.74662 -63.0464
rradius 70.7348
rwrist -2.45163
rhand -42.4589 -315.866
rfingers 7.12502
rthumb -15.3372 -345.278
lclavicle 3.18055e-015 1.50082e-014
lhumerus -363.677 366.507 68.7622
lradius 84.7064
lwrist -335.927
lhand -35.3368 -1025.42
lfingers 7.12502
lthumb -8.46978 1524.39
rfemur 431.027 -182.753 -144.063
rtibia 121.429
rfoot -210.248 182.718
rtoes -16.5773
lfemur 255.549 377.8 -14.2789
ltibia 135.24
lfoot -384.81 8.55456
ltoes -41.5583
3227
root 10.5258 9.48204 -13.6574 572.468 -177.879 -194.538
lowerback 49.8105 2.52864 -5.08704
upperback 11.3225 0.35214 0.689732
thorax -7.82827 -0.0606926 2.98506
lowerneck -12.8902 -2.10251 -3.50867
upperneck 8.90678 -2.11311 -0.643725
head 4.80806 -1.1992 0.200435
rclavicle -4.45278e-014 2.34566e-014
rhumerus -10.8 4.40182 -65.6731
rradius 63.4464
rwrist -0.822298
rhand -41.7447 -317.582
rfingers 7.12502
rthumb -14.6492 -347.045
lclavicle -4.45278e-014 2.34566e-014
lhumerus -367.186 366.508 70.749
lradius 82.6926
lwrist -333.835
lhand -37.414 -1025.08
lfingers 7.12502
lthumb -10.474 1524.63
rfemur 432.274 -181.859 -144.325
rtibia 119.746
rfoot -209.607 184.598
rtoes -12.0792
lfemur 256.521 375.681 -14.2792
ltibia 134.908
lfoot -383.228 10.1803
ltoes -41.1183
3228
root 10.689 9.6328 -13.8096 572.052 -176.658 -194.513
lowerback 46.9358 2.10278 -5.09922
upperback 12.4329 0.0827051 0.816405
thorax -7.36188 -0.202535 3.43646
lowerneck -13.0408 -2.08149 -3.75087
upperneck 9.30449 -1.98911 -0.969001
head 4.95516 -1.174 0.144158
rclavicle 6.36111e-014 -2.22639e-014
rhumerus -13.4363 3.85701 -67.5583
rradius 57.3488
rwrist -1.8285
rhand -43.458 -312.736
rfingers 7.12502
rthumb -16.2993 -342.071
lclavicle 6.36111e-014 -2.22639e-014
lhumerus -371.231 367.295 71.7943
lradius 81.2808
lwrist -332.152
lhand -37.1169 -1024.63
lfingers 7.12502
lthumb -10.1874 1525.1
rfemur 433.36 -181.27 -144.981
rtibia 117.453
rfoot -208.28 186.208
rtoes -7.51546
lfemur 257.878 373.761 -14.2923
ltibia 133.903
lfoot -383.597 10.6373
ltoes -39.749
3229
root 10.8474 9.84899 -13.9513 571.914 -175.448 -194.308
lowerback 45.2652 2.00512 -5.86741
upperback 11.9631 -0.157148 1.65772
thorax -7.46095 -0.328652 4.85099
lowerneck -12.5755 -1.78024 -4.41691
upperneck 9.12714 -1.42391 -1.57319
head 4.81945 -0.95798 0.112942
rclavicle -3.81667e-014 1.98785e-014
rhumerus -16.6751 3.58343 -67.8687
rradius 53.1101
rwrist -3.67568
rhand -43.3407 -313.581
rfingers 7.12502
rthumb -16.1864 -342.925
lclavicle -3.81667e-014 1.98785e-014
lhumerus -375.867 368.565 73.7748
lradius 80.0912
lwrist -332.204
lhand -37.2901 -1024.49
lfingers 7.12502
lthumb -10.3545 1525.24
rfemur 434.329 -180.974 -145.704
rtibia 114.74
rfoot -206.931 186.436
rtoes -5.98449
lfemur 259.288 371.971 -14.7464
ltibia 131.911
lfoot -383.037 11.646
ltoes -39.555
3230
root 11.0232 10.1263 -14.0874 571.532 -174.612 -193.874
lowerback 43.7359 1.61989 -5.04677
upperback 11.9035 -0.178476 1.68799
thorax -7.14015 -0.329513 4.47861
lowerneck -12.7007 -1.85571 -3.73541
upperneck 9.01239 -1.62734 -1.69985
head 4.79888 -1.04052 -0.0520908
rclavicle 3.81667e-014 2.50469e-014
rhumerus -20.3876 0.338787 -68.3289
rradius 50.479
rwrist -4.24679
rhand -44.3684 -313.181
rfingers 7.12502
rthumb -17.1758 -342.441
lclavicle 3.81667e-014 2.50469e-014
lhumerus -378.505 367.615 74.7169
lradius 79.3359
lwrist -332.548
lhand -37.4972 -1024.47
lfingers 7.12502
lthumb -10.5543 1525.24
rfemur 435.922 -180.328 -146.421
rtibia 111.566
rfoot -205.981 185.715
rtoes -6.98372
lfemur 260.88 369.964 -15.3484
ltibia 129.646
lfoot -382.484 11.9112
ltoes -38.3514
3231
root 11.2016 10.4778 -14.2114 570.469 -173.298 -193.592
lowerback 43.1659 1.53386 -5.09955
upperback 11.8643 -0.240068 2.08337
thorax -7.0283 -0.377237 4.95935
lowerneck -13.0717 -1.62655 -4.66928
upperneck 9.09303 -1.16853 -1.39091
head 4.88959 -0.832507 0.226362
rclavicle -3.18055e-015 -1.74931e-014
rhumerus -23.326 -1.04525 -67.7471
rradius 48.8021
rwrist -4.06181
rhand -45.8653 -311.21
rfingers 7.12502
rthumb -18.6161 -340.339
lclavicle -3.18055e-015 -1.74931e-014
lhumerus -381.79 368.167 75.93
lradius 79.7755
lwrist -333.912
lhand -37.8315 -1024.5
lfingers 7.12502
lthumb -10.8767 1525.2
rfemur 439.174 -180.176 -147.404
rtibia 107.746
rfoot -204.96 184.883
rtoes -8.9635
lfemur 263.829 368.767 -16.1549
ltibia 126.738
lfoot -382.034 12.078
ltoes -36.5587
3232
root 11.3745 10.8451 -14.3317 570.145 -171.804 -193.104
lowerback 41.4457 1.85465 -5.27549
upperback 11.8951 0.186303 2.39096
thorax -6.55293 -0.201835 5.21247
lowerneck -13.5952 -1.57483 -4.44926
upperneck 9.44627 -1.05584 -1.76111
head 5.08152 -0.804653 0.0793429
rclavicle 4.13472e-014 7.95139e-015
rhumerus -26.2273 -2.84535 -66.6161
rradius 47.465
rwrist -3.34192
rhand -46.5718 -309.732
rfingers 7.12502
rthumb -19.2956 -338.795
lclavicle 4.13472e-014 7.95139e-015
lhumerus -383.121 367.377 76.4732
lradius 79.4293
lwrist -334.876
lhand -38.7157 -1024.84
lfingers 7.12502
lthumb -11.7295 1524.81
rfemur 441.61 -180.47 -148.794
rtibia 103.683
rfoot -203.477 184.14
rtoes -10.5241
lfemur 265.693 368.034 -17.589
ltibia 123.561
lfoot -380.961 12.2451
ltoes -34.2507
3233
root 11.5587 11.2277 -14.4458 569.979 -170.75 -192.289
lowerback 39.5353 1.37939 -4.82533
upperback 11.8765 -0.125397 2.25349
thorax -5.96434 -0.339048 4.95622
lowerneck -13.7547 -1.36022 -4.76647
upperneck 9.66101 -0.701856 -1.68782
head 5.17275 -0.644278 0.180843
rclavicle -1.27222e-014 -4.92986e-014
rhumerus -28.3004 -3.37808 -65.8029
rradius 46.1822
rwrist -2.75253
rhand -45.2806 -313.229
rfingers 7.12502
rthumb -18.0537 -342.411
lclavicle -1.27222e-014 -4.92986e-014
lhumerus -384.225 367.541 76.0895
lradius 79.686
lwrist -335.887
lhand -38.7056 -1023.51
lfingers 7.12502
lthumb -11.7197 1526.14
rfemur 443.812 -180.336 -150.314
rtibia 99.4528
rfoot -201.805 183.274
rtoes -11.6916
lfemur 267.317 366.86 -19.3391
ltibia 119.785
lfoot -378.943 13.1393
ltoes -32.895
3234
root 11.748 11.6369 -14.5591 569.813 -169.97 -191.311
lowerback 37.7385 0.8474 -4.37977
upperback 11.8037 -0.522061 2.20713
thorax -5.43367 -0.515899 4.8199
lowerneck -14.033 -1.15784 -5.09079
upperneck 10.05 -0.3272 -1.78093
head 5.3372 -0.491662 0.23294
rclavicle -1.59028e-015 -4.77083e-015
rhumerus -29.8917 -3.16687 -64.8486
rradius 45.0379
rwrist -2.08996
rhand -45.1759 -312.175
rfingers 7.12502
rthumb -17.9529 -341.366
lclavicle -1.59028e-015 -4.77083e-015
lhumerus -384.819 368.12 75.6231
lradius 79.9167
lwrist -335.99
lhand -38.844 -1024.42
lfingers 7.12502
lthumb -11.8532 1525.23
rfemur 446.187 -180.072 -151.752
rtibia 95.1882
rfoot -200.143 181.38
rtoes -13.7305
lfemur 269.194 365.813 -21.403
ltibia 115.447
lfoot -376.602 14.4606
ltoes -32.6476
3235
root 11.9387 12.046 -14.6686 569.776 -169.213 -190.262
lowerback 35.7102 0.635265 -3.8472
upperback 11.7105 -0.520965 2.08304
thorax -4.99114 -0.494818 4.40693
lowerneck -14.2209 -1.20132 -4.6259
upperneck 10.7721 -0.397903 -2.11947
head 5.59539 -0.550112 0.0428226
rclavicle -4.13472e-014 -4.77083e-015
rhumerus -31.8442 -3.55211 -63.8981
rradius 44.2645
rwrist -1.30227
rhand -45.6577 -312.173
rfingers 7.12502
rthumb -18.4164 -341.321
lclavicle -4.13472e-014 -4.77083e-015
lhumerus -384.622 367.92 75.2135
lradius 80.0853
lwrist -335.898
lhand -38.7871 -1024.35
lfingers 7.12502
lthumb -11.7983 1525.3
rfemur 448.459 -179.907 -153.045
rtibia 91.1729
rfoot -198.915 178.577
rtoes -13.0063
lfemur 271.023 365.243 -23.5511
ltibia 110.944
lfoot -374.33 15.143
ltoes -31.4457
3236
root 12.1243 12.3986 -14.7672 569.755 -168.549 -189.072
lowerback 33.9625 0.32643 -3.49819
upperback 11.2858 -0.713045 2.09669
thorax -4.82356 -0.560447 4.29882
lowerneck -14.4445 -1.22377 -5.13681
upperneck 11.8019 -0.27992 -2.09533
head 5.96096 -0.539745 0.139101
rclavicle 4.13472e-014 -4.77083e-015
rhumerus -33.5592 -3.24287 -62.7104
rradius 43.9671
rwrist -0.876076
rhand -45.7151 -312.312
rfingers 7.12502
rthumb -18.4717 -341.455
lclavicle 4.13472e-014 -4.77083e-015
lhumerus -384.39 368.291 75.0806
lradius 80.1556
lwrist -336.456
lhand -39.0797 -1022.65
lfingers 7.12502
lthumb -12.0805 1526.98
rfemur 450.252 -179.724 -154.242
rtibia 87.9546
rfoot -197.688 175.398
rtoes -7.61228
lfemur 272.616 364.897 -25.7817
ltibia 107.072
lfoot -373.133 15.0737
ltoes -28.8573
3237
root 12.306 12.747 -14.8568 569.802 -167.593 -188.027
lowerback 31.6142 0.15938 -3.42104
upperback 11.1875 -0.79471 1.96454
thorax -4.49349 -0.575264 4.45221
lowerneck -14.9139 -1.30233 -6.03316
upperneck 12.8959 -0.164329 -1.84257
head 6.39267 -0.538142 0.369992
rclavicle 1.11319e-014 1.51076e-014
rhumerus -34.9743 -2.92233 -61.4022
rradius 43.8837
rwrist -0.624307
rhand -45.4326 -312.542
rfingers 7.12502
rthumb -18.1999 -341.71
lclavicle 1.11319e-014 1.51076e-014
lhumerus -383.914 368.8 74.9605
lradius 80.0273
lwrist -337.457
lhand -39.6036 -1021.93
lfingers 7.12502
lthumb -12.5856 1527.67
rfemur 452.049 -179.966 -155.208
rtibia 85.4598
rfoot -197.169 171.985
rtoes -2.19994
lfemur 274.133 365.191 -28.5126
ltibia 103.529
lfoot -372.305 16.0238
ltoes -27.5889
3238
root 12.5014 13.0942 -14.95 569.552 -166.851 -186.883
lowerback 29.8671 0.192655 -3.31196
upperback 10.7352 -0.672903 1.87556
thorax -4.2357 -0.501242 4.21261
lowerneck -15.4441 -1.58207 -5.84994
upperneck 14.0153 -0.491297 -1.91564
head 6.85035 -0.724957 0.27853
rclavicle 6.36111e-014 -4.41302e-014
rhumerus -36.8522 -3.30937 -60.2538
rradius 44.1872
rwrist -0.249172
rhand -45.5383 -312.245
rfingers 7.12502
rthumb -18.3015 -341.404
lclavicle 6.36111e-014 -4.41302e-014
lhumerus -382.946 368.443 74.6788
lradius 79.7191
lwrist -338.565
lhand -40.0583 -1022.48
lfingers 7.12502
lthumb -13.0239 1527.09
rfemur 454.172 -179.964 -155.997
rtibia 83.9714
rfoot -197.994 173.713
rtoes -1.84368
lfemur 275.681 365.026 -27.9866
ltibia 100.56
lfoot -369.041 10.1997
ltoes -35.8915
3239
root 12.6953 13.3812 -15.0433 569.083 -166.194 -185.832
lowerback 28.1516 0.462606 -2.77916
upperback 10.2299 -0.1774 1.4126
thorax -4.07022 -0.229453 3.20932
lowerneck -15.1917 -2.05437 -4.19887
upperneck 14.777 -1.42274 -2.33696
head 7.05052 -1.13116 -0.223075
rclavicle -3.18055e-015 -5.56597e-015
rhumerus -39.7436 -4.67443 -59.4213
rradius 45.0437
rwrist 0.348928
rhand -45.9121 -311.394
rfingers 7.12502
rthumb -18.6611 -340.519
lclavicle -3.18055e-015 -5.56597e-015
lhumerus -381.572 366.622 74.0974
lradius 79.3633
lwrist -339.684
lhand -40.3203 -1022.29
lfingers 7.12502
lthumb -13.2765 1527.26
rfemur 456.234 -179.854 -156.207
rtibia 83.8174
rfoot -198.986 176.504
rtoes -4.62994
lfemur 277.252 364.483 -26.7915
ltibia 98.4778
lfoot -368.977 4.41584
ltoes -40.8839
